<svg xmlns="http://www.w3.org/2000/svg" id="Layer_1" viewBox="0 0 152.11 86.92"><defs><style>.cls-1{fill:#d71d30;}</style></defs><path class="cls-1" d="M143.54,4.03s-.01-.02-.02-.03c0,.01.02.02.03.04h0Z"></path><path class="cls-1" d="M151.91,16.22l-8.37-12.18s-.02-.02-.03-.04c0-.01-.02-.03-.03-.04,0-.01-.02-.02-.03-.04,0,0,0,0,0,0-.02-.03-.05-.06-.08-.08-.01-.01-.03-.03-.04-.04,0-.01-.02-.02-.03-.02-.02-.02-.04-.04-.07-.05,0,0-.02-.01-.03-.02-.02-.02-.05-.03-.08-.04-.04-.02-.07-.03-.11-.05-.02,0-.05-.02-.07-.02-.05-.02-.1-.03-.16-.04-.04,0-.07,0-.11-.01h-.06L63.7,0c-.18,0-.37.03-.53.11L.64,29.95c-.43.21-.69.66-.64,1.14l4.17,38.49s0,.06.01.09c0,.06.02.11.04.17,0,.03.02.06.03.08,0,.02.01.03.02.05.01.03.03.05.04.08.01.03.03.05.05.08.02.02.03.05.05.07.08.09.16.18.26.24.03.02.05.03.08.05.05.03.11.05.17.08,0,0,.01,0,.02,0l18.07,6.04s.09.03.14.04l52.77,10.26c.07.01.14.02.22.02.13,0,.25-.02.38-.07l67.48-24.04c.39-.14.67-.47.74-.88l7.36-44.89c.05-.29-.02-.58-.18-.82h0ZM132.71,52.93l-40.87,14.96-29.7,10.49-25.1-4.43-30.25-5.88L2.92,31.97,63.95,2.82l76.7,3.37-7.94,46.74Z"></path><path class="cls-1" d="M4.18,69.58v.03s0,.04.01.06c0-.03,0-.06-.01-.09Z"></path><path class="cls-1" d="M102.64,48.41c1.2-.02,2.13.99,2.13,2.25s-.93,2.25-2.13,2.19c-1.2-.05-2.13-1.06-2.13-2.25,0-1.19.92-2.17,2.13-2.19h0ZM102.64,52.44c.97.04,1.73-.77,1.73-1.79s-.76-1.85-1.73-1.84c-.98.01-1.73.82-1.73,1.79,0,.98.76,1.8,1.73,1.84ZM103.08,50.92c.16.27.34.55.46.85h-.54s-.4-.81-.4-.81h-.2v.78h-.51v-2.22h.93c.45,0,.7.34.7.75,0,.32-.15.56-.43.66h0ZM102.75,50.55c.15,0,.24-.13.24-.29,0-.14-.1-.33-.24-.33h-.36v.62h.36Z"></path><path class="cls-1" d="M45.83,39.7c-.03-7.86-2.23-11.47-6.65-10.92-.27.03-.55.08-.83.15-4.55,1.01-7.22,6.42-7.13,14.92.09,8.03,2.51,12.08,6.69,11.56.21-.03.43-.07.66-.12,3.9-.88,6.58-5.03,7.02-11.04l-4.78,1.08c-.25,1.96-1.02,3.61-1.95,3.83-.05,0-.09.02-.14.02-1.18.15-1.81-1.37-1.84-4.73v-.94s8.94-2.02,8.94-2.02c.02-.6.02-1.26.01-1.8h0ZM36.45,39.48c-.03-3.02.86-4.87,1.96-5.1.06-.01.11-.02.17-.03,1.26-.15,1.9,1.32,1.93,4.27l-4.06.86h0ZM62.47,47.5l1.11,2.65-6.97.85-.02-15.92c0-1.55-.46-2.22-1.19-2.1-.73.15-1.37,1.21-1.37,2.79l.05,15.76-7.14,1.54,1.35-3.08-.11-20.07-1.41-2.43,7.22-1.55v3.8c1.12-3.16,2.5-4.77,4.52-5.2.06-.01.12-.02.18-.03,2.39-.41,3.81,1.65,3.81,5.99l-.03,16.99h0ZM82.06,46.28l1.09,2.32-7.91.51.24-16.76c.13-1.53-.22-2.3-1.01-2.23-.95.12-1.51,1.06-1.7,2.61l-.77,16.72-7.09.58,1.36-2.83.55-20.18-1.01-3.07,7.23-1.18v3.51c1.49-2.94,2.73-4.52,4.77-4.76.05,0,.09-.01.14-.01,5.28,0,4.38,4.91,4.34,12.37l-.22,12.38h0ZM18.35,31.59c-1.14.24-2.34.75-3.76,1.17l-5.81,1.98,2.03,2.53,2.05,22.08-1.44,3.54,7.35-1.91c7.54-2.24,10.81-8.11,9.96-17.48-.66-7.24-2.05-13.68-10.38-11.92ZM19.69,53.99c-.12.03-.45.12-1.43.43l-1.61-16.92c.96-.28,1.28-.38,1.36-.4.19-.06.37-.09.55-.11,2.43-.29,3.62,2.63,4.08,7.49.48,5.17-.29,8.74-2.94,9.52h0ZM95.34,20.72l10.94-.89-2.41,3.08-10.27,32.35-8.7.29,2.44-3.66,1.1-5.56-4.57-21.98-1.34-2.64,10.19-.71-1.64,3.22,1.8,14.93,3.42-15.7-.94-2.74ZM105.81,16.37c.23-1.78,1.65-3.79,3.73-4.21.19-.04.38-.06.57-.07,2.31-.14,3.9,1.58,3.49,4.53-.65,4.75-3.74,6.76-6.14,9.04-.07.07-.15.11-.2.12-.09.02-.13-.05-.03-.29.62-1.56,2.1-5.21,2.05-5.22-.28-.04-.74-.14-1.12-.22-2.42-.49-2.43-3.04-2.34-3.68h0ZM127.05,20.89l-1.13,6.8c-1.54-1.52-4.1-2.56-5.38-2.56-.17,0-.33.02-.49.05-1.61.35-2.53,1.91-1.24,3.57.42.52.99,1.02,1.51,1.55,2.88,2.88,5.46,6.05,4.7,10.27-.85,4.75-4.05,7.38-8.34,8.31-.76.17-1.56.25-2.39.26-2.14.01-4.93-1.13-6.79-2.57l1.37-7.92c1.89,1.88,4.01,3.07,5.28,3.07.18,0,.35-.02.52-.06.99-.21,1.75-1,1.91-1.97.18-1.05-.95-2.16-1.95-3.35-2.61-3.13-4.35-5.33-3.69-9.07.71-4.11,3.75-7.31,7.72-8.16.66-.14,1.3-.21,2.01-.22,1.9,0,4.44.95,6.4,2.01h0Z"></path></svg>