<svg xmlns="http://www.w3.org/2000/svg" width="86" height="24" viewBox="0 0 86 24" fill="none"><path d="M5 23.6946H0V6.69458H5V23.6946Z" fill="#4F3F7B"></path><path fill-rule="evenodd" clip-rule="evenodd" d="M0 5C2.76142 5 5 2.76142 5 0H0V5Z" fill="#4F3F7B"></path><path fill-rule="evenodd" clip-rule="evenodd" d="M12.9983 9.03896L17.6141 21.2493H22.2897L26.9354 8.89029V23.6622H32.0607V0H25.3769L19.9819 14.4802L14.5569 0H7.87305V23.6622H12.9983V9.03896ZM42.9475 23.9662C37.2948 23.9662 33.515 20.1828 33.515 14.5414C33.515 9.10263 37.465 5.15026 42.9134 5.15026C48.9747 5.15026 53.027 10.0485 51.9713 16.0277H39.5422C39.8487 18.3248 40.9384 19.4734 42.8113 19.4734C44.4458 19.4734 45.515 18.9084 46.0258 17.591H51.8487C50.725 21.746 47.5105 23.9662 42.9475 23.9662ZM42.7772 9.40665C41.0405 9.40665 40.019 10.3863 39.6103 12.4132H45.7398C45.6716 10.589 44.5139 9.40665 42.7772 9.40665ZM66.9182 17.987V23.0204C65.6242 23.7298 64.3983 24 62.7638 24C58.6435 24 56.2257 21.5678 56.2257 17.4127V11.8829H52.8205V6.84958H56.2257L62.0487 6.84958L67.0544 6.84958V11.8829H62.0487V16.0615C62.0487 17.8181 62.7978 18.6288 64.3983 18.6288C65.3518 18.6288 66.2712 18.3924 66.9182 17.987ZM80.6978 21.5696C79.4039 23.0173 77.4834 24 75.1386 24C71.3248 24 68.7708 21.7367 68.7708 18.291C68.7708 14.744 71.6653 12.8185 76.9093 12.8185C77.8969 12.8185 78.8163 12.8861 79.5995 13.0212V12.1429C79.5995 10.5552 78.6526 9.57385 77.0181 9.57385C75.4176 9.57385 74.5418 10.2952 74.3375 11.8829H69.0935C69.434 7.66032 72.5506 5.15026 77.0796 5.15026C82.1193 5.15026 85.0819 7.85273 85.0819 12.4469V18.2137H85.0904V23.6618C85.0686 23.6621 85.0468 23.6622 85.0249 23.6622C83.2676 23.6622 81.7031 22.8435 80.6978 21.5696ZM76.5007 20.0139C75.0705 20.0139 74.2533 19.3045 74.2533 18.1221C74.2533 16.8722 75.3089 16.2304 77.2839 16.2304C78.0331 16.2304 78.7141 16.298 79.5995 16.4669V17.6154C79.5995 19.1018 78.4417 20.0139 76.5007 20.0139ZM61.9535 5.75988C58.7469 5.75988 56.1473 3.18109 56.1473 0H62.0227V5.75948C61.9997 5.75974 61.9766 5.75988 61.9535 5.75988Z" fill="url(#paint0_linear_1_26)"></path><defs><linearGradient id="paint0_linear_1_26" x1="9.93343" y1="2.10158" x2="87.9476" y2="18.9363" gradientUnits="userSpaceOnUse"><stop stop-color="#4E3F7A"></stop><stop offset="1"></stop></linearGradient></defs></svg>