<svg xmlns="http://www.w3.org/2000/svg" xmlns:xlink="http://www.w3.org/1999/xlink" id="layer" x="0px" y="0px" viewBox="0 0 652 652" style="enable-background:new 0 0 652 652;" xml:space="preserve"><style type="text/css">	.st0{fill:#FF5910;}	.st1{fill:#FFFFFF;}</style><path class="st0" d="M145.9,350.9c0-2.1-0.7-4.2-1.9-6c-1.9,3-5,4.4-8.5,3.5c-3.1-0.7-5.5-2.9-5.5-5v-46.7l0.7,0.3 c3.5,1.4,6,4.8,6.8,8.9c0.1,0.8,0.2,1.6,0.2,2.4c0,2.8-1.1,5.4-2.8,7.4c3.2-0.6,12.6-3.5,12.6-15.4c0-11-8.9-17.7-17.1-19.3L130,281 v-32.7c0-2.1,2.5-4.3,5.5-5c3.5-0.8,6.5,0.6,8.5,3.5c1.2-1.8,1.9-3.8,1.9-6c0-2.9-1.1-5.8-3.2-8.1c-4.6-5.1-12.2-5.1-20.3,0 l-0.3,0.2l-0.2-0.2c-8.1-5-15.7-5-20.3,0c-2.1,2.3-3.1,5.2-3.1,8.1c0,2.1,0.7,4.2,1.9,6c1.9-3,5-4.4,8.5-3.5c3.1,0.7,5.5,2.9,5.5,5 v36.5l-0.3,0.1c-6.3,3.3-12,8-16.9,13.8l-0.4,0.4l-0.4-0.4c0,0-41.7-50.6-41.8-51c0.5-2.1,3.3-4.2,6.4-4.6c3.2-0.4,5.8,1,7.6,3.7 c1.2-1.8,1.9-3.8,1.9-6c0-2.9-1.1-5.8-3.2-8.1c-4.6-5.1-12.2-5.1-20.3,0l-0.2,0.2l-0.2-0.2c-8.1-5-15.7-5-20.3,0 c-2.1,2.3-3.2,5.2-3.2,8.1c0,2.1,0.7,4.2,1.9,6c1.9-3,5-4.4,8.5-3.5c3.1,0.7,5.5,2.9,5.5,5v32.8l-0.4,0.1 C30.3,283,22,289.6,22,300.3c0,11.9,9.4,14.8,12.6,15.4c-1.7-2-2.8-4.6-2.8-7.4c0-0.7,0-1.3,0.1-2c0.6-4.1,2.9-7.5,6.3-9.1l0.7-0.3 v46.5c0,2.1-2.5,4.2-5.5,5c-3.5,0.9-6.5-0.6-8.5-3.5c-1.2,1.8-1.9,3.8-1.9,6c0,2.9,1.1,5.8,3.2,8.1c4.6,5.1,12.2,5.1,20.3,0l0.2-0.2 l0.2,0.2c8.1,5,15.7,5,20.3,0c2-2.2,3.1-5.1,3.2-8.1c0-2.1-0.7-4.2-1.9-6c-1.9,3-5,4.4-8.5,3.5c-3.1-0.7-5.5-2.9-5.5-5v-43.1 l0.8,0.5c11.6,7.9,20.5,24,21.6,34.2v53.3c0,5.7-3.8,10-7.5,11c-2.6,0.7-4.9-0.5-6.5-2.9c-1.2,1.7-1.8,3.7-1.8,5.7 c0,2.5,0.9,5.1,2.7,7.1c4.5,5,12.2,4.8,20.7-0.4l0.2-0.2l0.3,0.2c8.4,5.2,16.2,5.4,20.7,0.4c1.8-1.9,2.7-4.5,2.7-7.1 c0-2-0.7-4-1.8-5.8c-1.5,2.3-3.7,3.4-6.3,2.7c-3.8-0.9-7.8-5.5-7.8-10.8v-52.6c0.2-3.6,1.6-8.3,4-13.2l0.3-0.7l0.5,0.6 c0,0,16.9,20.8,17.1,21.2c-0.2,2.1-2.8,4.2-5.9,4.9c-1.6,0.3-5.5,0.5-8.1-3.5c-1.2,1.8-1.8,3.8-1.8,5.9c0,2.9,1.1,5.8,3.1,8.1 c4.6,5.1,12.2,5.1,20.3,0l0.2-0.2l0.3,0.2c8.1,5,15.7,5,20.3,0C144.7,356.8,145.9,353.9,145.9,350.9L145.9,350.9z M84.7,321 l-0.4-1.1c-7.9-20.7-20.4-30.6-29.5-35.2l-0.3-0.1V270l33.9,41.7l0.2,0.2L84.7,321z M114.4,320.5l-9.3-11.2l0.3-0.3 c2.6-3,5.4-5.6,8.3-7.6l0.8-0.5C114.4,300.8,114.4,320.5,114.4,320.5z"></path><path class="st0" d="M127.2,375.8l-1.8,4.8h0l-1.7-4.8h-2.6v7.3h1.5v-5.8h0l2.1,5.8h1.4l2.1-5.8h0v5.8h1.5v-7.3H127.2z M113.9,377.1 h2.2v6h1.5v-6h2.2v-1.3h-5.9V377.1z"></path><path class="st1" d="M54.5,270v14.5l0.3,0.1c9.1,4.6,21.6,14.5,29.5,35.2l0.4,1.1l3.9-9l-0.2-0.2C88.5,311.7,54.5,270,54.5,270z  M105.3,308.9l-0.3,0.3l9.3,11.2v-19.7l-0.8,0.5C110.7,303.3,107.9,305.9,105.3,308.9z"></path><g>	<path class="st0" d="M556.6,367.7l1.3-2c6.6-10.7,12.2-17.4,17.5-23.8l4.2-5.1l4.8-5.7l1.8,17.7c0.9,7.2,1.8,14.7,0.7,24.4  c-0.6,5.2-4,12.8-10,17.2c-4.1,2.9-8.9,3.9-13.8,2.9c-3.5-0.7-6.4-3.6-7.5-7.2c-0.3-0.9-0.5-2-0.5-3.4c0-2.9,1.5-6.8,5-11.2  C559.2,370.4,556.6,367.7,556.6,367.7 M436,354.7c1.6-7.5,9.1-18.6,18.7-24.3c6.1-3.6,12.9-3.4,16.3,0.6c1.2,1.3,2,3.2,2,5.4  c0,2.3-0.9,5-3.2,7.9c-7.5,9.3-23.3,14.6-30.9,14.1l-3.7-0.2L436,354.7z M581.3,246.1c-6.9,0.1-25.2,0.2-28.1,0.2  c-1.5,3.2-15.6,33.1-15.6,33.1s-26.8,0.4-30.1,0.5c-1.2,2.3-5.9,12-8.7,17.6c7.2-0.3,30.4-1.2,30.4-1.2L506,346.6  c-8.9,17.1-31.2,45.6-58.6,44.2c-5.7-0.3-12.8-3.2-14.2-15l-0.4-3.2l3.2-0.3c30.7-2.7,43.4-14,48.3-20.5c7.7-10.3,9-20.6,3.4-28.2  c-6.5-8.9-20.7-11.5-35.2-6.4c-26.8,9.3-47.5,39.8-44.4,65.3l0.2,1.5l-1.1,1.1c-0.8,0.8-5.3,5-9.8,4.6c-2.1-0.2-3.8-1.3-5.1-3.3  c-1.5-2.6-2.3-6-2.3-10.2c0-27,29.5-85.4,62.9-146.5h-35.8c-15.7,16.2-35.5,48.9-51.4,75.4c0,0-13.9,22.7-14.3,23.4  c-3.5,5.2-4.6,7-7.4,5.8c-1.4-0.6-1.9-1.4-1.9-2.9c0-1.5,0.6-3.6,1.5-6.8l6.9-28c5.8-24.5,12.3-51.5,19.3-67.1  c-7,0.1-29.9,0.2-32.6,0.2c-8.8,11.3-19.8,36.5-31.5,63.5c-25.2,58.3-43,96-60.8,90.9c-2.7-0.8-4.7-2.6-5.6-5.4  c-0.5-1.4-0.7-2.9-0.7-4.6c0-8.1,5.1-18.9,9.6-26.8c-6.8,2.4-13.9,5-14.9,5.4c-8.9,10.1-16.9,27.4-16.9,40.7c0,1.9,0.2,3.8,0.5,5.5  c1.2,5.7,4.2,9.6,9.2,11.8c7.6,3.4,15.3,3.6,23.4,0.5c28.6-11.1,51.4-59.7,57.7-74.3c3.4-7.9,4.7-10.9,8-10  c1.8,0.5,2.4,1.7,2.4,3.7c0,1.4-0.3,3.2-0.7,5.4l-0.5,3c-4,23.5-12.7,55.4-20.5,71.2h24.7c4.6-6.2,11.2-17.1,18.8-29.7  c8.9-14.8,19.1-31.5,28.2-44.3c8.5-11.9,9.6-13.5,12.6-11.7c3,1.8,2.2,3.5-4.5,16.6c-11.8,18.4-15.9,44-9.4,58.1  c3.1,6.7,8.3,10.6,15.3,11.6c13.4,1.5,25.3-9.4,27.8-12.4l2.5-3.1l2.4,3.2c2.3,2.9,4.9,5.3,8.4,7.5c8.8,5.1,38.6,8.4,60.2-14  l0.3-0.5l3.7-2.2l1.8-0.8l1.3,3.4c0,0,0.7,1.7,1,2.3c3.4,9.3,10.4,12.7,15.6,13.9c10.5,2.4,22.9-1.6,31.8-10.2l1.9-1.8l2.1,1.5  c5.5,3.9,11.9,8.1,17.8,9.1c34.8,6.2,48.1-22.8,49.5-30.3c0.9-4.6,1.2-8.8,1.2-12.6c0-9.5-2.2-16.8-4.3-23.4c-1.6-5.2-3-9.9-3-14.8  c0-3.6,1.2-7.2,3.3-11.1c-4.6-2.4-13.2-6.8-14.8-7.6c-5.5,2.5-27.8,30.6-41.2,47.6c-23.6,29.8-23.8,29.7-27,28.1l-2.6-3.1  c-1.4-4.1,1.5-10.6,3.3-14.2l30.6-65l1.5-3.7c0,0,54.1-0.8,58-0.9c1-2.6,5-12.2,7.1-17.4c-8,0.1-56.5,0.9-56.5,0.9  S578,252.9,581.3,246.1"></path></g></svg>