<svg xmlns="http://www.w3.org/2000/svg" xmlns:xlink="http://www.w3.org/1999/xlink" width="2560px" height="1323px" style="shape-rendering:geometricPrecision; text-rendering:geometricPrecision; image-rendering:optimizeQuality; fill-rule:evenodd; clip-rule:evenodd"><g><path style="opacity:1" fill="#fefefe" d="M -0.5,-0.5 C 852.833,-0.5 1706.17,-0.5 2559.5,-0.5C 2559.5,440.5 2559.5,881.5 2559.5,1322.5C 1706.17,1322.5 852.833,1322.5 -0.5,1322.5C -0.5,881.5 -0.5,440.5 -0.5,-0.5 Z"></path></g><g><path style="opacity:1" fill="#242423" d="M 158.5,129.5 C 511.833,129.5 865.167,129.5 1218.5,129.5C 1218.5,483.833 1218.5,838.167 1218.5,1192.5C 1217.5,1192.5 1216.5,1192.5 1215.5,1192.5C 1213.91,1189.83 1213.08,1186.83 1213,1183.5C 1212.5,833.833 1212.33,484.167 1212.5,134.5C 861.5,134.667 510.5,134.5 159.5,134C 510.5,133.667 861.5,133.333 1212.5,133C 861.167,132.667 509.833,132.333 158.5,132C 509.833,131.667 861.167,131.333 1212.5,131C 861,130.833 509.666,130.333 158.5,129.5 Z"></path></g><g><path style="opacity:1" fill="#262523" d="M 158.5,129.5 C 509.666,130.333 861,130.833 1212.5,131C 861.167,131.333 509.833,131.667 158.5,132C 509.833,132.333 861.167,132.667 1212.5,133C 861.5,133.333 510.5,133.667 159.5,134C 510.5,134.5 861.5,134.667 1212.5,134.5C 1212.33,484.167 1212.5,833.833 1213,1183.5C 1213.08,1186.83 1213.91,1189.83 1215.5,1192.5C 861.833,1192.5 508.167,1192.5 154.5,1192.5C 154.5,838.167 154.5,483.833 154.5,129.5C 155.833,129.5 157.167,129.5 158.5,129.5 Z"></path></g><g><path style="opacity:1" fill="#262523" d="M 2087.5,293.5 C 2088.43,296.699 2088.43,299.865 2087.5,303C 2087.94,304.762 2088.44,304.595 2089,302.5C 2089.33,303.167 2089.67,303.833 2090,304.5C 2090.85,309.705 2092.02,314.705 2093.5,319.5C 2094.64,339.457 2094.81,359.457 2094,379.5C 2092.91,385.86 2091.75,392.193 2090.5,398.5C 2062.83,398.5 2035.17,398.5 2007.5,398.5C 2007.67,386.162 2007.5,373.829 2007,361.5C 2006,346.834 1998.17,339.334 1983.5,339C 1976.37,338.178 1969.37,338.845 1962.5,341C 1959.9,341.883 1957.73,343.383 1956,345.5C 1953.34,349.814 1951.67,354.481 1951,359.5C 1950.33,370.833 1950.33,382.167 1951,393.5C 1953,406.668 1959.84,416.502 1971.5,423C 1984.83,430 1998.17,437 2011.5,444C 2025.74,449.749 2039.74,456.083 2053.5,463C 2071.58,473.078 2084.75,487.578 2093,506.5C 2094.94,515.483 2096.77,524.483 2098.5,533.5C 2098.36,538.414 2099.03,543.081 2100.5,547.5C 2101.99,577.177 2101.82,606.844 2100,636.5C 2098.33,652.191 2094.99,667.525 2090,682.5C 2078.4,712.058 2056.9,729.391 2025.5,734.5C 2020.58,734.87 2015.91,735.87 2011.5,737.5C 1986.79,739.166 1962.12,738.832 1937.5,736.5C 1935.09,735.232 1932.43,734.565 1929.5,734.5C 1889.78,727.5 1867.45,703.833 1862.5,663.5C 1860.85,645.211 1860.19,626.878 1860.5,608.5C 1861.24,598.833 1862.07,589.167 1863,579.5C 1863.54,576.708 1864.38,574.042 1865.5,571.5C 1893.19,570.842 1920.52,571.509 1947.5,573.5C 1946.81,589.642 1947.98,605.642 1951,621.5C 1953.51,630.343 1959.34,635.176 1968.5,636C 1976.88,636.787 1985.21,636.454 1993.5,635C 1996.66,634.063 1999.49,632.563 2002,630.5C 2005.09,623.824 2007.09,616.824 2008,609.5C 2008.67,597.5 2008.67,585.5 2008,573.5C 2006.79,568.332 2005.13,563.332 2003,558.5C 1994.1,548.794 1983.93,540.628 1972.5,534C 1957.19,525.847 1941.53,518.513 1925.5,512C 1906.4,504.197 1890.23,492.363 1877,476.5C 1873.96,471.757 1871.46,466.757 1869.5,461.5C 1868.87,458.603 1867.87,455.936 1866.5,453.5C 1865.28,447.539 1864.28,441.539 1863.5,435.5C 1863.93,429.886 1863.26,424.553 1861.5,419.5C 1860.78,405.846 1860.44,392.179 1860.5,378.5C 1860.32,362.151 1860.65,345.818 1861.5,329.5C 1861.5,328.833 1861.5,328.167 1861.5,327.5C 1863.1,323.1 1863.77,318.434 1863.5,313.5C 1868.53,281.603 1886.2,260.103 1916.5,249C 1927.03,246.356 1937.7,244.356 1948.5,243C 1980.59,240.51 2012.26,242.844 2043.5,250C 2065.35,257.348 2080.01,271.848 2087.5,293.5 Z"></path></g><g><path style="opacity:1" fill="#8b8b8b" d="M 2404.5,250.5 C 2370.61,249.851 2336.94,250.518 2303.5,252.5C 2303.5,251.5 2303.5,250.5 2303.5,249.5C 2337.34,249.168 2371,249.502 2404.5,250.5 Z"></path></g><g><path style="opacity:1" fill="#262523" d="M 1292.5,250.5 C 1363.17,250.5 1433.83,250.5 1504.5,250.5C 1504.5,284.167 1504.5,317.833 1504.5,351.5C 1467,351.168 1429.66,351.502 1392.5,352.5C 1391.5,380.328 1391.17,408.328 1391.5,436.5C 1428.83,436.5 1466.17,436.5 1503.5,436.5C 1503.5,468.5 1503.5,500.5 1503.5,532.5C 1466.17,532.5 1428.83,532.5 1391.5,532.5C 1391.17,563.338 1391.5,594.005 1392.5,624.5C 1429.83,624.5 1467.17,624.5 1504.5,624.5C 1504.5,659.833 1504.5,695.167 1504.5,730.5C 1433.83,730.5 1363.17,730.5 1292.5,730.5C 1292.5,570.5 1292.5,410.5 1292.5,250.5 Z"></path></g><g><path style="opacity:1" fill="#262523" d="M 1791.5,433.5 C 1791.36,438.414 1792.03,443.081 1793.5,447.5C 1794.83,462.167 1796.17,476.834 1797.5,491.5C 1797.16,497.098 1797.82,502.432 1799.5,507.5C 1801.29,524.818 1802.95,542.151 1804.5,559.5C 1804.38,565.069 1805.04,570.402 1806.5,575.5C 1806.5,576.833 1806.5,578.167 1806.5,579.5C 1806.36,584.414 1807.03,589.081 1808.5,593.5C 1809.78,608.842 1811.12,624.176 1812.5,639.5C 1812.23,644.434 1812.9,649.1 1814.5,653.5C 1816.92,679.168 1819.25,704.835 1821.5,730.5C 1787.17,730.5 1752.83,730.5 1718.5,730.5C 1717.25,704.804 1715.59,679.137 1713.5,653.5C 1713.62,647.931 1712.96,642.598 1711.5,637.5C 1711.5,636.833 1711.5,636.167 1711.5,635.5C 1711.5,630.167 1711.5,624.833 1711.5,619.5C 1694.99,619.17 1678.66,619.504 1662.5,620.5C 1659.61,657.144 1656.95,693.811 1654.5,730.5C 1621.5,730.5 1588.5,730.5 1555.5,730.5C 1555.5,728.833 1555.5,727.167 1555.5,725.5C 1557.37,704.153 1559.37,682.82 1561.5,661.5C 1563.41,654.424 1564.41,647.091 1564.5,639.5C 1567.67,606.807 1571,574.14 1574.5,541.5C 1576.03,536.75 1576.7,531.75 1576.5,526.5C 1578.18,507.326 1580.18,488.326 1582.5,469.5C 1584.08,464.417 1584.75,459.084 1584.5,453.5C 1585.87,436.139 1587.54,418.806 1589.5,401.5C 1590.72,398.692 1592.06,395.859 1593.5,393C 1592.58,387.884 1592.24,382.717 1592.5,377.5C 1593.67,363.483 1595,349.483 1596.5,335.5C 1597.96,330.402 1598.62,325.069 1598.5,319.5C 1600.89,296.505 1603.22,273.505 1605.5,250.5C 1661.5,250.5 1717.5,250.5 1773.5,250.5C 1779.91,311.473 1785.91,372.473 1791.5,433.5 Z"></path></g><g><path style="opacity:1" fill="#262523" d="M 2240.5,305.5 C 2240.74,309.479 2241.74,313.146 2243.5,316.5C 2247.3,332.817 2250.96,349.15 2254.5,365.5C 2254.34,368.187 2254.5,370.854 2255,373.5C 2255.28,374.416 2255.78,375.082 2256.5,375.5C 2258.7,385.436 2260.7,395.436 2262.5,405.5C 2264.83,405.5 2267.17,405.5 2269.5,405.5C 2279.73,354.238 2291.07,303.238 2303.5,252.5C 2336.94,250.518 2370.61,249.851 2404.5,250.5C 2396.2,280.096 2388.2,309.762 2380.5,339.5C 2379.08,341.515 2378.41,343.848 2378.5,346.5C 2365,393.017 2352,439.684 2339.5,486.5C 2338.08,488.515 2337.41,490.848 2337.5,493.5C 2336.09,497.397 2335.09,501.397 2334.5,505.5C 2332.39,509.502 2331.06,513.835 2330.5,518.5C 2327.22,528.335 2324.55,538.335 2322.5,548.5C 2321.73,549.263 2321.23,550.263 2321,551.5C 2320.5,611.166 2320.33,670.832 2320.5,730.5C 2284.83,730.5 2249.17,730.5 2213.5,730.5C 2213.67,671.499 2213.5,612.499 2213,553.5C 2211.73,549.846 2210.56,546.18 2209.5,542.5C 2208.94,537.835 2207.61,533.502 2205.5,529.5C 2202.97,517.586 2199.64,505.919 2195.5,494.5C 2195.59,491.848 2194.92,489.515 2193.5,487.5C 2192.37,482.776 2191.04,478.109 2189.5,473.5C 2188.94,468.835 2187.61,464.502 2185.5,460.5C 2164.88,390.68 2144.88,320.68 2125.5,250.5C 2159.83,250.5 2194.17,250.5 2228.5,250.5C 2233.23,268.61 2237.23,286.943 2240.5,305.5 Z"></path></g><g><path style="opacity:1" fill="#6a6968" d="M 1292.5,250.5 C 1363.33,249.501 1434.33,249.167 1505.5,249.5C 1505.5,283.833 1505.5,318.167 1505.5,352.5C 1467.83,352.5 1430.17,352.5 1392.5,352.5C 1429.66,351.502 1467,351.168 1504.5,351.5C 1504.5,317.833 1504.5,284.167 1504.5,250.5C 1433.83,250.5 1363.17,250.5 1292.5,250.5 Z"></path></g><g><path style="opacity:1" fill="#a33035" d="M 1031.5,281.5 C 1031.83,319.67 1031.5,357.67 1030.5,395.5C 1030.83,357.663 1030.5,319.996 1029.5,282.5C 823.489,282.175 617.489,282.509 411.5,283.5C 413.389,282.678 415.389,281.845 417.5,281C 622.236,280.168 826.903,280.335 1031.5,281.5 Z"></path></g><g><path style="opacity:1" fill="#a83033" d="M 411.5,283.5 C 407.841,285.342 403.841,286.342 399.5,286.5C 403.159,284.658 407.159,283.658 411.5,283.5 Z"></path></g><g><path style="opacity:1" fill="#4c1e20" d="M 1031.5,281.5 C 1032.66,320.665 1032.83,359.998 1032,399.5C 1031.99,403.346 1030.82,406.679 1028.5,409.5C 1029.81,404.934 1030.47,400.267 1030.5,395.5C 1031.5,357.67 1031.83,319.67 1031.5,281.5 Z"></path></g><g><path style="opacity:1" fill="#eb3137" d="M 1029.5,282.5 C 1029.67,320.501 1029.5,358.501 1029,396.5C 1027.92,400.77 1027.42,405.103 1027.5,409.5C 1026.41,415.858 1024.41,421.858 1021.5,427.5C 1018.76,429.975 1016.76,432.975 1015.5,436.5C 1014.83,437.5 1014.17,438.5 1013.5,439.5C 1010.41,440.92 1008.41,443.253 1007.5,446.5C 1006.17,447.167 1005.17,448.167 1004.5,449.5C 999.617,452.109 995.284,455.443 991.5,459.5C 987.108,462.468 982.441,464.968 977.5,467C 974.066,467.558 970.733,468.391 967.5,469.5C 962.07,469.161 956.736,469.661 951.5,471C 850.833,471.167 750.167,471.333 649.5,471.5C 547.419,471.491 445.419,470.824 343.5,469.5C 343.22,429.154 343.554,388.821 344.5,348.5C 346.883,336.409 351.883,325.743 359.5,316.5C 361.876,315.794 363.21,314.127 363.5,311.5C 366.683,309.263 369.349,306.597 371.5,303.5C 375.131,299.69 379.131,296.357 383.5,293.5C 387.08,292.236 390.413,290.569 393.5,288.5C 395.282,287.28 397.282,286.614 399.5,286.5C 403.841,286.342 407.841,285.342 411.5,283.5C 617.489,282.509 823.489,282.175 1029.5,282.5 Z"></path></g><g><path style="opacity:1" fill="#f02f37" d="M 431.5,285.5 C 628.834,285.167 826.168,285.5 1023.5,286.5C 924.833,286.833 826.167,287.167 727.5,287.5C 628.498,287.5 529.831,286.833 431.5,285.5 Z"></path></g><g><path style="opacity:1" fill="#4d1d1b" d="M 393.5,288.5 C 390.413,290.569 387.08,292.236 383.5,293.5C 385.309,292.519 386.643,291.019 387.5,289C 389.473,288.505 391.473,288.338 393.5,288.5 Z"></path></g><g><path style="opacity:1" fill="#dd343f" d="M 1029.5,282.5 C 1030.5,319.996 1030.83,357.663 1030.5,395.5C 1030.47,400.267 1029.81,404.934 1028.5,409.5C 1028.17,409.5 1027.83,409.5 1027.5,409.5C 1027.42,405.103 1027.92,400.77 1029,396.5C 1029.5,358.501 1029.67,320.501 1029.5,282.5 Z"></path></g><g><path style="opacity:1" fill="#4a4a48" d="M 2087.5,293.5 C 2091.05,301.708 2093.05,310.375 2093.5,319.5C 2092.02,314.705 2090.85,309.705 2090,304.5C 2089.67,303.833 2089.33,303.167 2089,302.5C 2088.44,304.595 2087.94,304.762 2087.5,303C 2088.43,299.865 2088.43,296.699 2087.5,293.5 Z"></path></g><g><path style="opacity:1" fill="#972c33" d="M 371.5,303.5 C 369.349,306.597 366.683,309.263 363.5,311.5C 365.195,307.805 367.861,305.139 371.5,303.5 Z"></path></g><g><path style="opacity:1" fill="#6d6c6a" d="M 2240.5,305.5 C 2242.26,308.854 2243.26,312.521 2243.5,316.5C 2241.74,313.146 2240.74,309.479 2240.5,305.5 Z"></path></g><g><path style="opacity:1" fill="#a13136" d="M 363.5,311.5 C 363.21,314.127 361.876,315.794 359.5,316.5C 359.67,313.796 361.003,312.129 363.5,311.5 Z"></path></g><g><path style="opacity:1" fill="#696866" d="M 1863.5,313.5 C 1863.77,318.434 1863.1,323.1 1861.5,327.5C 1861.36,322.586 1862.03,317.919 1863.5,313.5 Z"></path></g><g><path style="opacity:1" fill="#7e7c7b" d="M 1598.5,319.5 C 1598.62,325.069 1597.96,330.402 1596.5,335.5C 1596.53,329.949 1597.19,324.616 1598.5,319.5 Z"></path></g><g><path style="opacity:1" fill="#a7a6a4" d="M 2380.5,339.5 C 2380.59,342.152 2379.92,344.485 2378.5,346.5C 2378.41,343.848 2379.08,341.515 2380.5,339.5 Z"></path></g><g><path style="opacity:1" fill="#fafaf9" d="M 1697.5,434.5 C 1697.28,439.1 1697.95,443.433 1699.5,447.5C 1700.83,463.501 1702.17,479.501 1703.5,495.5C 1703.9,504.532 1704.57,513.532 1705.5,522.5C 1692.83,522.5 1680.17,522.5 1667.5,522.5C 1667.5,520.833 1667.5,519.167 1667.5,517.5C 1672.13,461.8 1677.13,406.133 1682.5,350.5C 1685.17,350.5 1687.83,350.5 1690.5,350.5C 1692.54,378.534 1694.87,406.534 1697.5,434.5 Z"></path></g><g><path style="opacity:1" fill="#787775" d="M 1861.5,329.5 C 1860.65,345.818 1860.32,362.151 1860.5,378.5C 1859.83,371.842 1859.5,365.008 1859.5,358C 1859.29,348.282 1859.96,338.782 1861.5,329.5 Z"></path></g><g><path style="opacity:1" fill="#d03a44" d="M 344.5,348.5 C 343.554,388.821 343.22,429.154 343.5,469.5C 343.5,470.5 343.5,471.5 343.5,472.5C 342.502,435.004 342.168,397.337 342.5,359.5C 342.646,355.613 343.313,351.946 344.5,348.5 Z"></path></g><g><path style="opacity:1" fill="#6f6e6c" d="M 2254.5,365.5 C 2255.58,368.627 2256.25,371.96 2256.5,375.5C 2255.78,375.082 2255.28,374.416 2255,373.5C 2254.5,370.854 2254.34,368.187 2254.5,365.5 Z"></path></g><g><path style="opacity:1" fill="#484745" d="M 1592.5,377.5 C 1592.24,382.717 1592.58,387.884 1593.5,393C 1592.06,395.859 1590.72,398.692 1589.5,401.5C 1589.86,393.283 1590.86,385.283 1592.5,377.5 Z"></path></g><g><path style="opacity:1" fill="#7d7c7a" d="M 1861.5,419.5 C 1863.26,424.553 1863.93,429.886 1863.5,435.5C 1862.19,430.384 1861.53,425.051 1861.5,419.5 Z"></path></g><g><path style="opacity:1" fill="#4e211e" d="M 1021.5,427.5 C 1019.95,429.882 1019.29,432.549 1019.5,435.5C 1018.04,435.433 1016.71,435.766 1015.5,436.5C 1016.76,432.975 1018.76,429.975 1021.5,427.5 Z"></path></g><g><path style="opacity:1" fill="#cfcecc" d="M 1392.5,352.5 C 1392.5,380.167 1392.5,407.833 1392.5,435.5C 1429.83,435.5 1467.17,435.5 1504.5,435.5C 1504.83,468.338 1504.5,501.004 1503.5,533.5C 1503.5,533.167 1503.5,532.833 1503.5,532.5C 1503.5,500.5 1503.5,468.5 1503.5,436.5C 1466.17,436.5 1428.83,436.5 1391.5,436.5C 1391.17,408.328 1391.5,380.328 1392.5,352.5 Z"></path></g><g><path style="opacity:1" fill="#71261f" d="M 1013.5,439.5 C 1011.9,442.108 1009.9,444.441 1007.5,446.5C 1008.41,443.253 1010.41,440.92 1013.5,439.5 Z"></path></g><g><path style="opacity:1" fill="#727272" d="M 1697.5,434.5 C 1699.05,438.567 1699.72,442.9 1699.5,447.5C 1697.95,443.433 1697.28,439.1 1697.5,434.5 Z"></path></g><g><path style="opacity:1" fill="#797877" d="M 1791.5,433.5 C 1792.97,437.919 1793.64,442.586 1793.5,447.5C 1792.03,443.081 1791.36,438.414 1791.5,433.5 Z"></path></g><g><path style="opacity:1" fill="#5b231f" d="M 1004.5,449.5 C 1001.43,452.882 998.099,456.048 994.5,459C 993.552,459.483 992.552,459.649 991.5,459.5C 995.284,455.443 999.617,452.109 1004.5,449.5 Z"></path></g><g><path style="opacity:1" fill="#a2a2a2" d="M 1866.5,453.5 C 1867.87,455.936 1868.87,458.603 1869.5,461.5C 1867.35,459.383 1866.35,456.716 1866.5,453.5 Z"></path></g><g><path style="opacity:1" fill="#5b5a58" d="M 1584.5,453.5 C 1584.75,459.084 1584.08,464.417 1582.5,469.5C 1582.53,463.949 1583.19,458.616 1584.5,453.5 Z"></path></g><g><path style="opacity:1" fill="#a0a09f" d="M 2185.5,460.5 C 2187.61,464.502 2188.94,468.835 2189.5,473.5C 2187.39,469.498 2186.06,465.165 2185.5,460.5 Z"></path></g><g><path style="opacity:1" fill="#de383d" d="M 343.5,469.5 C 445.419,470.824 547.419,471.491 649.5,471.5C 750.167,471.333 850.833,471.167 951.5,471C 956.736,469.661 962.07,469.161 967.5,469.5C 967.5,469.833 967.5,470.167 967.5,470.5C 962.154,471.094 956.82,471.761 951.5,472.5C 748.833,472.5 546.167,472.5 343.5,472.5C 343.5,471.5 343.5,470.5 343.5,469.5 Z"></path></g><g><path style="opacity:1" fill="#952f2e" d="M 342.5,359.5 C 342.168,397.337 342.502,435.004 343.5,472.5C 546.167,472.5 748.833,472.5 951.5,472.5C 748.667,473.5 545.667,473.833 342.5,473.5C 341.167,435.5 341.167,397.5 342.5,359.5 Z"></path></g><g><path style="opacity:1" fill="#411d19" d="M 967.5,470.5 C 963.617,472.395 959.283,473.561 954.5,474C 750.333,474.833 546.333,474.666 342.5,473.5C 545.667,473.833 748.667,473.5 951.5,472.5C 956.82,471.761 962.154,471.094 967.5,470.5 Z"></path></g><g><path style="opacity:1" fill="#a7a6a4" d="M 2193.5,487.5 C 2194.92,489.515 2195.59,491.848 2195.5,494.5C 2194.08,492.485 2193.41,490.152 2193.5,487.5 Z"></path></g><g><path style="opacity:1" fill="#9b9998" d="M 2339.5,486.5 C 2339.59,489.152 2338.92,491.485 2337.5,493.5C 2337.41,490.848 2338.08,488.515 2339.5,486.5 Z"></path></g><g><path style="opacity:1" fill="#6a6967" d="M 1797.5,491.5 C 1798.81,496.616 1799.47,501.949 1799.5,507.5C 1797.82,502.432 1797.16,497.098 1797.5,491.5 Z"></path></g><g><path style="opacity:1" fill="#91908e" d="M 1703.5,495.5 C 1704.9,503.475 1705.9,511.642 1706.5,520C 1706.47,521.07 1706.14,521.903 1705.5,522.5C 1704.57,513.532 1703.9,504.532 1703.5,495.5 Z"></path></g><g><path style="opacity:1" fill="#a4a4a4" d="M 2334.5,505.5 C 2333.94,510.165 2332.61,514.498 2330.5,518.5C 2331.06,513.835 2332.39,509.502 2334.5,505.5 Z"></path></g><g><path style="opacity:1" fill="#747371" d="M 1667.5,517.5 C 1667.5,519.167 1667.5,520.833 1667.5,522.5C 1680.17,522.5 1692.83,522.5 1705.5,522.5C 1692.68,523.495 1679.68,523.829 1666.5,523.5C 1666.21,521.265 1666.54,519.265 1667.5,517.5 Z"></path></g><g><path style="opacity:1" fill="#868584" d="M 1503.5,532.5 C 1503.5,532.833 1503.5,533.167 1503.5,533.5C 1466.5,533.5 1429.5,533.5 1392.5,533.5C 1392.5,563.833 1392.5,594.167 1392.5,624.5C 1391.5,594.005 1391.17,563.338 1391.5,532.5C 1428.83,532.5 1466.17,532.5 1503.5,532.5 Z"></path></g><g><path style="opacity:1" fill="#b0afad" d="M 2205.5,529.5 C 2207.61,533.502 2208.94,537.835 2209.5,542.5C 2207.39,538.498 2206.06,534.165 2205.5,529.5 Z"></path></g><g><path style="opacity:1" fill="#858584" d="M 1576.5,526.5 C 1576.7,531.75 1576.03,536.75 1574.5,541.5C 1574.3,536.25 1574.97,531.25 1576.5,526.5 Z"></path></g><g><path style="opacity:1" fill="#8b8a88" d="M 2098.5,533.5 C 2099.97,537.919 2100.64,542.586 2100.5,547.5C 2099.03,543.081 2098.36,538.414 2098.5,533.5 Z"></path></g><g><path style="opacity:1" fill="#e2e2e2" d="M 2322.5,548.5 C 2321.85,609.313 2321.18,669.98 2320.5,730.5C 2320.33,670.832 2320.5,611.166 2321,551.5C 2321.23,550.263 2321.73,549.263 2322.5,548.5 Z"></path></g><g><path style="opacity:1" fill="#fdfdfd" d="M 803.5,623.5 C 805.265,630.59 806.931,637.59 808.5,644.5C 808.5,681.833 808.5,719.167 808.5,756.5C 676.489,756.82 544.489,756.486 412.5,755.5C 375.048,745.88 351.881,722.214 343,684.5C 342.5,644.835 342.333,605.168 342.5,565.5C 473.5,565.333 604.5,565.5 735.5,566C 759.992,570.823 779.492,583.323 794,603.5C 797.981,609.794 801.147,616.461 803.5,623.5 Z"></path></g><g><path style="opacity:1" fill="#6b6b6b" d="M 1865.5,571.5 C 1892.99,570.502 1920.66,570.169 1948.5,570.5C 1948.74,571.791 1948.4,572.791 1947.5,573.5C 1920.52,571.509 1893.19,570.842 1865.5,571.5 Z"></path></g><g><path style="opacity:1" fill="#7c7b7a" d="M 1804.5,559.5 C 1805.81,564.616 1806.47,569.949 1806.5,575.5C 1805.04,570.402 1804.38,565.069 1804.5,559.5 Z"></path></g><g><path style="opacity:1" fill="#9d9c9a" d="M 1806.5,579.5 C 1807.97,583.919 1808.64,588.586 1808.5,593.5C 1807.03,589.081 1806.36,584.414 1806.5,579.5 Z"></path></g><g><path style="opacity:1" fill="#c4c4c2" d="M 1662.5,620.5 C 1678.66,619.504 1694.99,619.17 1711.5,619.5C 1711.5,624.833 1711.5,630.167 1711.5,635.5C 1710.51,630.695 1710.18,625.695 1710.5,620.5C 1694.5,620.5 1678.5,620.5 1662.5,620.5 Z"></path></g><g><path style="opacity:1" fill="#a6a6a5" d="M 803.5,623.5 C 806.726,630.014 808.393,637.014 808.5,644.5C 806.931,637.59 805.265,630.59 803.5,623.5 Z"></path></g><g><path style="opacity:1" fill="#d3d2d2" d="M 1860.5,608.5 C 1860.19,626.878 1860.85,645.211 1862.5,663.5C 1861.78,663.082 1861.28,662.416 1861,661.5C 1859.36,643.686 1859.19,626.019 1860.5,608.5 Z"></path></g><g><path style="opacity:1" fill="#898989" d="M 1711.5,637.5 C 1712.96,642.598 1713.62,647.931 1713.5,653.5C 1712.19,648.384 1711.53,643.051 1711.5,637.5 Z"></path></g><g><path style="opacity:1" fill="#878787" d="M 1812.5,639.5 C 1813.97,643.919 1814.64,648.586 1814.5,653.5C 1812.9,649.1 1812.23,644.434 1812.5,639.5 Z"></path></g><g><path style="opacity:1" fill="#757472" d="M 1564.5,639.5 C 1564.41,647.091 1563.41,654.424 1561.5,661.5C 1561.77,653.934 1562.77,646.601 1564.5,639.5 Z"></path></g><g><path style="opacity:1" fill="#8a8a88" d="M 1555.5,725.5 C 1555.5,727.167 1555.5,728.833 1555.5,730.5C 1588.5,730.5 1621.5,730.5 1654.5,730.5C 1621.34,731.498 1588,731.832 1554.5,731.5C 1554.21,729.265 1554.54,727.265 1555.5,725.5 Z"></path></g><g><path style="opacity:1" fill="#949391" d="M 1929.5,734.5 C 1932.43,734.565 1935.09,735.232 1937.5,736.5C 1934.5,736.706 1931.84,736.04 1929.5,734.5 Z"></path></g><g><path style="opacity:1" fill="#c3c2c0" d="M 2025.5,734.5 C 2021.27,736.956 2016.61,737.956 2011.5,737.5C 2015.91,735.87 2020.58,734.87 2025.5,734.5 Z"></path></g><g><path style="opacity:1" fill="#848381" d="M 412.5,755.5 C 544.489,756.486 676.489,756.82 808.5,756.5C 678.334,757.666 548.001,757.833 417.5,757C 415.618,756.802 413.952,756.302 412.5,755.5 Z"></path></g><g><path style="opacity:1" fill="#262523" d="M 1538.5,816.5 C 1539.22,818.764 1539.55,821.097 1539.5,823.5C 1539.41,826.152 1540.08,828.485 1541.5,830.5C 1550.13,871.048 1558.47,911.715 1566.5,952.5C 1566.04,957.607 1567.04,962.274 1569.5,966.5C 1570.44,973.685 1571.94,980.685 1574,987.5C 1574.5,979.173 1574.67,970.84 1574.5,962.5C 1574.5,913.5 1574.5,864.5 1574.5,815.5C 1579.83,815.5 1585.17,815.5 1590.5,815.5C 1590.5,902.5 1590.5,989.5 1590.5,1076.5C 1587.17,1076.5 1583.83,1076.5 1580.5,1076.5C 1579.08,1068.42 1577.42,1060.42 1575.5,1052.5C 1575.59,1049.85 1574.92,1047.51 1573.5,1045.5C 1563.01,999.882 1552.68,954.215 1542.5,908.5C 1542.59,905.848 1541.92,903.515 1540.5,901.5C 1537.63,887.807 1534.63,874.141 1531.5,860.5C 1530.5,932.497 1530.17,1004.5 1530.5,1076.5C 1525.17,1076.5 1519.83,1076.5 1514.5,1076.5C 1514.5,989.5 1514.5,902.5 1514.5,815.5C 1522.59,815.199 1530.59,815.533 1538.5,816.5 Z"></path></g><g><path style="opacity:1" fill="#262523" d="M 1756.5,814.5 C 1756.5,895.5 1756.5,976.5 1756.5,1057.5C 1770.5,1057.5 1784.5,1057.5 1798.5,1057.5C 1798.5,1063.83 1798.5,1070.17 1798.5,1076.5C 1778.5,1076.5 1758.5,1076.5 1738.5,1076.5C 1738.5,989.167 1738.5,901.833 1738.5,814.5C 1744.5,814.5 1750.5,814.5 1756.5,814.5 Z"></path></g><g><path style="opacity:1" fill="#4d4d4d" d="M 2130.5,816.5 C 2122.59,815.533 2114.59,815.199 2106.5,815.5C 2106.5,902.5 2106.5,989.5 2106.5,1076.5C 2105.5,989.335 2105.17,902.002 2105.5,814.5C 2114.23,813.865 2122.57,814.532 2130.5,816.5 Z"></path></g><g><path style="opacity:1" fill="#343331" d="M 2393.5,815.5 C 2372.83,815.5 2352.17,815.5 2331.5,815.5C 2331.83,901.002 2331.5,986.335 2330.5,1071.5C 2330.5,985.833 2330.5,900.167 2330.5,814.5C 2351.67,814.169 2372.67,814.503 2393.5,815.5 Z"></path></g><g><path style="opacity:1" fill="#252423" d="M 2393.5,815.5 C 2393.5,821.5 2393.5,827.5 2393.5,833.5C 2378.83,833.5 2364.17,833.5 2349.5,833.5C 2348.5,866.996 2348.17,900.663 2348.5,934.5C 2363.17,934.5 2377.83,934.5 2392.5,934.5C 2392.5,940.167 2392.5,945.833 2392.5,951.5C 2377.99,951.171 2363.66,951.504 2349.5,952.5C 2348.5,987.329 2348.17,1022.33 2348.5,1057.5C 2363.5,1057.5 2378.5,1057.5 2393.5,1057.5C 2393.5,1063.83 2393.5,1070.17 2393.5,1076.5C 2372.5,1076.5 2351.5,1076.5 2330.5,1076.5C 2330.5,1074.83 2330.5,1073.17 2330.5,1071.5C 2331.5,986.335 2331.83,901.002 2331.5,815.5C 2352.17,815.5 2372.83,815.5 2393.5,815.5 Z"></path></g><g><path style="opacity:1" fill="#282624" d="M 2130.5,816.5 C 2131.29,819.802 2131.96,823.135 2132.5,826.5C 2132.29,829.495 2132.96,832.162 2134.5,834.5C 2140.5,863.852 2146.5,893.186 2152.5,922.5C 2152.29,925.495 2152.96,928.162 2154.5,930.5C 2158.42,949.545 2162.25,968.545 2166,987.5C 2166.5,930.168 2166.67,872.834 2166.5,815.5C 2171.83,815.5 2177.17,815.5 2182.5,815.5C 2182.5,902.5 2182.5,989.5 2182.5,1076.5C 2179.17,1076.5 2175.83,1076.5 2172.5,1076.5C 2160.64,1022.06 2148.31,967.727 2135.5,913.5C 2135.59,910.848 2134.92,908.515 2133.5,906.5C 2130.38,891.094 2127.04,875.761 2123.5,860.5C 2123.17,861.667 2122.83,862.833 2122.5,864C 2123.49,934.82 2123.82,1005.65 2123.5,1076.5C 2117.83,1076.5 2112.17,1076.5 2106.5,1076.5C 2106.5,989.5 2106.5,902.5 2106.5,815.5C 2114.59,815.199 2122.59,815.533 2130.5,816.5 Z"></path></g><g><path style="opacity:1" fill="#343331" d="M 2166.5,815.5 C 2171.98,814.511 2177.64,814.178 2183.5,814.5C 2183.83,902.002 2183.5,989.335 2182.5,1076.5C 2182.5,989.5 2182.5,902.5 2182.5,815.5C 2177.17,815.5 2171.83,815.5 2166.5,815.5 Z"></path></g><g><path style="opacity:1" fill="#42413f" d="M 1538.5,816.5 C 1530.59,815.533 1522.59,815.199 1514.5,815.5C 1514.5,902.5 1514.5,989.5 1514.5,1076.5C 1513.5,989.335 1513.17,902.002 1513.5,814.5C 1522.23,813.865 1530.57,814.532 1538.5,816.5 Z"></path></g><g><path style="opacity:1" fill="#515150" d="M 1590.5,1076.5 C 1590.5,989.5 1590.5,902.5 1590.5,815.5C 1585.17,815.5 1579.83,815.5 1574.5,815.5C 1574.5,864.5 1574.5,913.5 1574.5,962.5C 1573.5,913.336 1573.17,864.003 1573.5,814.5C 1579.5,814.5 1585.5,814.5 1591.5,814.5C 1591.83,902.002 1591.5,989.335 1590.5,1076.5 Z"></path></g><g><path style="opacity:1" fill="#686767" d="M 1957.5,1076.5 C 1957.5,989.5 1957.5,902.5 1957.5,815.5C 1951.5,815.5 1945.5,815.5 1939.5,815.5C 1939.5,902.5 1939.5,989.5 1939.5,1076.5C 1938.5,989.335 1938.17,902.002 1938.5,814.5C 1945.17,814.5 1951.83,814.5 1958.5,814.5C 1958.83,902.002 1958.5,989.335 1957.5,1076.5 Z"></path></g><g><path style="opacity:1" fill="#262423" d="M 1957.5,1076.5 C 1951.5,1076.5 1945.5,1076.5 1939.5,1076.5C 1939.5,989.5 1939.5,902.5 1939.5,815.5C 1945.5,815.5 1951.5,815.5 1957.5,815.5C 1957.5,902.5 1957.5,989.5 1957.5,1076.5 Z"></path></g><g><path style="opacity:1" fill="#7c7b79" d="M 1539.5,823.5 C 1540.92,825.515 1541.59,827.848 1541.5,830.5C 1540.08,828.485 1539.41,826.152 1539.5,823.5 Z"></path></g><g><path style="opacity:1" fill="#8a8a8a" d="M 2132.5,826.5 C 2133.77,828.905 2134.43,831.572 2134.5,834.5C 2132.96,832.162 2132.29,829.495 2132.5,826.5 Z"></path></g><g><path style="opacity:1" fill="#292827" d="M 1295.5,842.5 C 1297.61,838.498 1298.94,834.165 1299.5,829.5C 1301.45,821.052 1306.45,815.219 1314.5,812C 1323.76,810.416 1333.09,810.083 1342.5,811C 1347.53,812.598 1352.03,815.098 1356,818.5C 1359.44,824.132 1362.1,830.132 1364,836.5C 1368.82,870.326 1370.65,904.326 1369.5,938.5C 1369.44,967.175 1368.94,995.841 1368,1024.5C 1366.65,1036.62 1364.65,1048.62 1362,1060.5C 1358.61,1073.1 1350.44,1079.94 1337.5,1081C 1316.12,1084.74 1302.62,1076.24 1297,1055.5C 1292.08,1018.34 1290.25,981.009 1291.5,943.5C 1291.67,922.167 1291.83,900.833 1292,879.5C 1292.73,867.119 1293.9,854.786 1295.5,842.5 Z"></path></g><g><path style="opacity:1" fill="#fbfbfb" d="M 1323.5,829.5 C 1329.36,829.051 1335.03,829.717 1340.5,831.5C 1343.32,833.8 1345.16,836.8 1346,840.5C 1347.82,848.762 1349.15,857.095 1350,865.5C 1350.67,911.833 1350.67,958.167 1350,1004.5C 1349.65,1015.19 1348.98,1025.85 1348,1036.5C 1347.22,1043.4 1345.55,1050.07 1343,1056.5C 1341.27,1058.62 1339.1,1060.12 1336.5,1061C 1331.38,1061.89 1326.38,1061.55 1321.5,1060C 1320.33,1058.83 1319.17,1057.67 1318,1056.5C 1315.53,1049.63 1313.53,1042.63 1312,1035.5C 1310.23,978.807 1310.06,922.14 1311.5,865.5C 1312.89,860.731 1313.56,855.731 1313.5,850.5C 1314.18,844.603 1315.68,838.936 1318,833.5C 1319.45,831.536 1321.28,830.203 1323.5,829.5 Z"></path></g><g><path style="opacity:1" fill="#6b6a68" d="M 1323.5,829.5 C 1327.98,828.352 1332.65,828.185 1337.5,829C 1339.12,829.236 1340.12,830.069 1340.5,831.5C 1335.03,829.717 1329.36,829.051 1323.5,829.5 Z"></path></g><g><path style="opacity:1" fill="#676766" d="M 1299.5,829.5 C 1298.94,834.165 1297.61,838.498 1295.5,842.5C 1296.06,837.835 1297.39,833.502 1299.5,829.5 Z"></path></g><g><path style="opacity:1" fill="#949494" d="M 2349.5,833.5 C 2349.5,866.833 2349.5,900.167 2349.5,933.5C 2364.01,933.171 2378.34,933.504 2392.5,934.5C 2377.83,934.5 2363.17,934.5 2348.5,934.5C 2348.17,900.663 2348.5,866.996 2349.5,833.5 Z"></path></g><g><path style="opacity:1" fill="#242719" d="M 349.5,842.5 C 350.167,842.5 350.833,842.5 351.5,842.5C 549.194,843.832 747.027,843.832 945,842.5C 945.5,842.833 946,843.167 946.5,843.5C 847,843.833 747.5,844.167 648,844.5C 548.164,844.5 448.664,843.833 349.5,842.5 Z"></path></g><g><path style="opacity:1" fill="#29231a" d="M 341.5,844.5 C 344.073,844.148 346.406,844.648 348.5,846C 551,846.167 753.334,846.667 955.5,847.5C 752.5,847.5 549.5,847.5 346.5,847.5C 345.048,846.698 343.382,846.198 341.5,846C 340.262,845.31 340.262,844.81 341.5,844.5 Z"></path></g><g><path style="opacity:1" fill="#113338" d="M 346.5,847.5 C 549.5,847.5 752.5,847.5 955.5,847.5C 960.181,848.342 964.847,849.509 969.5,851C 970.942,851.377 971.942,852.21 972.5,853.5C 965.617,851.63 958.617,850.297 951.5,849.5C 748.334,848.5 545.001,848.167 341.5,848.5C 341.5,885.5 341.5,922.5 341.5,959.5C 340.815,922.307 340.148,884.973 339.5,847.5C 341.833,847.5 344.167,847.5 346.5,847.5 Z"></path></g><g><path style="opacity:1" fill="#292226" d="M 351.5,842.5 C 350.833,842.5 350.167,842.5 349.5,842.5C 346.72,843.078 344.053,843.745 341.5,844.5C 340.262,844.81 340.262,845.31 341.5,846C 343.382,846.198 345.048,846.698 346.5,847.5C 344.167,847.5 341.833,847.5 339.5,847.5C 340.148,884.973 340.815,922.307 341.5,959.5C 341.232,961.099 341.566,962.432 342.5,963.5C 342.5,964.833 342.5,966.167 342.5,967.5C 341.5,967.5 340.5,967.5 339.5,967.5C 339.66,969.199 339.494,970.866 339,972.5C 336.049,947.927 334.882,923.261 335.5,898.5C 335.667,883.5 335.833,868.5 336,853.5C 337.154,849.546 337.987,845.546 338.5,841.5C 345.605,840.708 352.605,840.875 359.5,842C 356.854,842.497 354.187,842.664 351.5,842.5 Z"></path></g><g><path style="opacity:1" fill="#03c0f2" d="M 951.5,849.5 C 958.617,850.297 965.617,851.63 972.5,853.5C 1004.39,865.394 1023.72,888.06 1030.5,921.5C 1030.5,924.167 1030.5,926.833 1030.5,929.5C 1030.5,963.5 1030.5,997.5 1030.5,1031.5C 1028.95,1031.82 1028.29,1032.82 1028.5,1034.5C 1027.17,1034.5 1025.83,1034.5 1024.5,1034.5C 1024.62,999.07 1024.45,963.737 1024,928.5C 1021.76,930.604 1020.76,932.938 1021,935.5C 1020.5,967.498 1020.33,999.498 1020.5,1031.5C 1021.5,1031.5 1022.5,1031.5 1023.5,1031.5C 1023.5,1032.5 1023.5,1033.5 1023.5,1034.5C 822.5,1034.33 621.5,1034.5 420.5,1035C 422.382,1035.2 424.048,1035.7 425.5,1036.5C 423.712,1036.21 422.045,1036.55 420.5,1037.5C 623.333,1038.17 826,1038.83 1028.5,1039.5C 824.833,1039.5 621.167,1039.5 417.5,1039.5C 414.167,1039.17 410.833,1038.83 407.5,1038.5C 400.595,1035.58 393.595,1032.75 386.5,1030C 381.631,1027.07 376.965,1023.9 372.5,1020.5C 363.127,1011.41 355.46,1001.08 349.5,989.5C 347.137,982.082 344.804,974.749 342.5,967.5C 342.5,966.167 342.5,964.833 342.5,963.5C 342.5,925.5 342.5,887.5 342.5,849.5C 545.5,849.5 748.5,849.5 951.5,849.5 Z"></path></g><g><path style="opacity:1" fill="#06bff7" d="M 399.5,851.5 C 574.089,852.657 748.756,852.657 923.5,851.5C 930.153,852.166 936.819,852.666 943.5,853C 746.167,853.667 548.833,853.667 351.5,853C 367.672,852.831 383.672,852.331 399.5,851.5 Z"></path></g><g><path style="opacity:1" fill="#0d7690" d="M 951.5,849.5 C 748.5,849.5 545.5,849.5 342.5,849.5C 342.5,887.5 342.5,925.5 342.5,963.5C 341.566,962.432 341.232,961.099 341.5,959.5C 341.5,922.5 341.5,885.5 341.5,848.5C 545.001,848.167 748.334,848.5 951.5,849.5 Z"></path></g><g><path style="opacity:1" fill="#a9a9a9" d="M 1313.5,850.5 C 1313.56,855.731 1312.89,860.731 1311.5,865.5C 1311.44,860.269 1312.11,855.269 1313.5,850.5 Z"></path></g><g><path style="opacity:1" fill="#7b7b78" d="M 1540.5,901.5 C 1541.92,903.515 1542.59,905.848 1542.5,908.5C 1541.08,906.485 1540.41,904.152 1540.5,901.5 Z"></path></g><g><path style="opacity:1" fill="#959593" d="M 2133.5,906.5 C 2134.92,908.515 2135.59,910.848 2135.5,913.5C 2134.08,911.485 2133.41,909.152 2133.5,906.5 Z"></path></g><g><path style="opacity:1" fill="#888888" d="M 2152.5,922.5 C 2153.77,924.905 2154.43,927.572 2154.5,930.5C 2152.96,928.162 2152.29,925.495 2152.5,922.5 Z"></path></g><g><path style="opacity:1" fill="#0f4048" d="M 1030.5,921.5 C 1031.31,923.292 1031.81,925.292 1032,927.5C 1032.83,965.002 1032.66,1002.34 1031.5,1039.5C 1031.83,1002.66 1031.5,965.996 1030.5,929.5C 1030.5,926.833 1030.5,924.167 1030.5,921.5 Z"></path></g><g><path style="opacity:1" fill="#626261" d="M 2392.5,934.5 C 2393.49,940.31 2393.82,946.31 2393.5,952.5C 2378.83,952.5 2364.17,952.5 2349.5,952.5C 2363.66,951.504 2377.99,951.171 2392.5,951.5C 2392.5,945.833 2392.5,940.167 2392.5,934.5 Z"></path></g><g><path style="opacity:1" fill="#5f5e5c" d="M 1566.5,952.5 C 1568.13,956.911 1569.13,961.578 1569.5,966.5C 1567.04,962.274 1566.04,957.607 1566.5,952.5 Z"></path></g><g><path style="opacity:1" fill="#919190" d="M 2349.5,952.5 C 2349.5,987.167 2349.5,1021.83 2349.5,1056.5C 2364.34,1056.17 2379.01,1056.5 2393.5,1057.5C 2378.5,1057.5 2363.5,1057.5 2348.5,1057.5C 2348.17,1022.33 2348.5,987.329 2349.5,952.5 Z"></path></g><g><path style="opacity:1" fill="#193947" d="M 342.5,967.5 C 344.804,974.749 347.137,982.082 349.5,989.5C 345.043,983.058 342.71,975.725 342.5,967.5 Z"></path></g><g><path style="opacity:1" fill="#03bff7" d="M 1028.5,1034.5 C 827.836,1036.5 626.836,1037.17 425.5,1036.5C 424.048,1035.7 422.382,1035.2 420.5,1035C 621.5,1034.5 822.5,1034.33 1023.5,1034.5C 1023.5,1033.5 1023.5,1032.5 1023.5,1031.5C 1022.5,1031.5 1021.5,1031.5 1020.5,1031.5C 1020.33,999.498 1020.5,967.498 1021,935.5C 1020.76,932.938 1021.76,930.604 1024,928.5C 1024.45,963.737 1024.62,999.07 1024.5,1034.5C 1025.83,1034.5 1027.17,1034.5 1028.5,1034.5 Z"></path></g><g><path style="opacity:1" fill="#1f3238" d="M 372.5,1020.5 C 376.965,1023.9 381.631,1027.07 386.5,1030C 393.595,1032.75 400.595,1035.58 407.5,1038.5C 405.508,1038.33 403.842,1039 402.5,1040.5C 401.494,1040.06 401.494,1039.4 402.5,1038.5C 399.506,1036.11 396.673,1036.11 394,1038.5C 393.354,1034.66 391.02,1032.66 387,1032.5C 384.323,1030.88 381.823,1029.05 379.5,1027C 378.207,1026.51 376.873,1026.34 375.5,1026.5C 374.794,1024.33 373.794,1022.33 372.5,1020.5 Z"></path></g><g><path style="opacity:1" fill="#02c2ed" d="M 1030.5,1031.5 C 1031.04,1034.7 1030.37,1037.36 1028.5,1039.5C 826,1038.83 623.333,1038.17 420.5,1037.5C 422.045,1036.55 423.712,1036.21 425.5,1036.5C 626.836,1037.17 827.836,1036.5 1028.5,1034.5C 1028.29,1032.82 1028.95,1031.82 1030.5,1031.5 Z"></path></g><g><path style="opacity:1" fill="#1d9dc6" d="M 1030.5,929.5 C 1031.5,965.996 1031.83,1002.66 1031.5,1039.5C 1031.5,1040.17 1031.17,1040.5 1030.5,1040.5C 826.167,1040.5 621.833,1040.5 417.5,1040.5C 417.5,1040.17 417.5,1039.83 417.5,1039.5C 621.167,1039.5 824.833,1039.5 1028.5,1039.5C 1030.37,1037.36 1031.04,1034.7 1030.5,1031.5C 1030.5,997.5 1030.5,963.5 1030.5,929.5 Z"></path></g><g><path style="opacity:1" fill="#18393d" d="M 417.5,1040.5 C 621.833,1040.5 826.167,1040.5 1030.5,1040.5C 1028.37,1041.31 1026.04,1041.81 1023.5,1042C 823.5,1042.67 623.5,1042.67 423.5,1042C 421.292,1041.81 419.292,1041.31 417.5,1040.5 Z"></path></g><g><path style="opacity:1" fill="#9e9e9e" d="M 1573.5,1045.5 C 1574.92,1047.51 1575.59,1049.85 1575.5,1052.5C 1574.08,1050.49 1573.41,1048.15 1573.5,1045.5 Z"></path></g><g><path style="opacity:1" fill="#959595" d="M 1756.5,814.5 C 1757.5,894.998 1757.83,975.665 1757.5,1056.5C 1771.5,1056.5 1785.5,1056.5 1799.5,1056.5C 1799.82,1063.35 1799.49,1070.02 1798.5,1076.5C 1798.5,1070.17 1798.5,1063.83 1798.5,1057.5C 1784.5,1057.5 1770.5,1057.5 1756.5,1057.5C 1756.5,976.5 1756.5,895.5 1756.5,814.5 Z"></path></g></svg>